<svg width="3100" height="3100" viewBox="0 0 3100 3100" fill="none" xmlns="http://www.w3.org/2000/svg">
<path d="M1122.5 1365L1028.5 1521" stroke="#FFE94D" stroke-width="85"/>
<path d="M949 1653L615.904 2210.49C615.506 2211.15 615.986 2212 616.762 2212H803.804" stroke="#FFE94D" stroke-width="85"/>
<path d="M1409.21 2212H616.809C615.734 2212 615.416 2210.54 616.394 2210.09L1408.79 1848.65C1409.45 1848.34 1410.21 1848.83 1410.21 1849.56V2211C1410.21 2211.55 1409.76 2212 1409.21 2212Z" stroke="#A6E276" stroke-width="85"/>
<path d="M1411.21 2212H2204.1C2205.18 2212 2205.5 2210.54 2204.52 2210.09L1411.62 1848.64C1410.96 1848.34 1410.21 1848.83 1410.21 1849.55V2211C1410.21 2211.55 1410.65 2212 1411.21 2212Z" stroke="#D995D1" stroke-width="85"/>
<path d="M2205.77 2210.66L1411.93 1848.79C1411.2 1848.45 1411.14 1847.44 1411.83 1847.02L1833.85 1592.52C1834.32 1592.23 1834.94 1592.38 1835.22 1592.86L2207.04 2209.23C2207.55 2210.08 2206.66 2211.07 2205.77 2210.66Z" stroke="#FF9C92" stroke-width="85"/>
<path d="M1412.97 1846.34L3000.13 889.856C3000.99 889.334 3000.62 888 2999.61 888H1847.85C1847.46 888 1847.1 888.229 1846.94 888.586L1411.54 1845.06C1411.14 1845.96 1412.13 1846.84 1412.97 1846.34Z" stroke="#537AE0" stroke-width="85"/>
<path d="M1845.65 888H844.959C844.185 888 843.704 888.842 844.098 889.509L1409.23 1846.35C1409.64 1847.04 1410.67 1846.99 1411 1846.25L1846.56 889.414C1846.86 888.752 1846.38 888 1845.65 888Z" stroke="#5A9DED" stroke-width="85"/>
<path d="M754.207 1044H753.695M753.695 1044H99.1365C98.1622 1044 97.7631 1045.25 98.5576 1045.82L1224.89 1845.29C1225.76 1845.91 1226.87 1844.89 1226.33 1843.96L754.556 1044.49C754.376 1044.19 754.048 1044 753.695 1044Z" stroke="#53D3E0" stroke-width="85"/>
</svg>
