<svg width="3000" height="3000" viewBox="0 0 3000 3000" fill="none" xmlns="http://www.w3.org/2000/svg">
<g clip-path="url(#clip0_124_105)">
<path d="M1359.5 838.5L562 2162H2158L1359.5 838.5Z" fill="#CCAB75"/>
<path d="M1359.5 1798L2952.5 838H1359.5V1798Z" fill="#CCAB75"/>
<path d="M1360.21 2162H2158.71L1360.21 1798V2162Z" fill="#FACC82"/>
<path d="M1360.21 2162H562.207L1360.21 1798V2162Z" fill="#CCAB75"/>
<path d="M1360.21 1798L2158.71 2162L1360.21 838V1798Z" fill="#CCAB75"/>
<path d="M1360.21 838V1798L562.207 2162L1360.21 838Z" fill="#7A6645"/>
<g filter="url(#filter0_d_124_105)">
<path d="M1360.21 1798L2953.21 838H1797.21L1360.21 1798Z" fill="#CCAB75"/>
</g>
<path d="M1797.21 838H793.207L1360.21 1798L1797.21 838Z" fill="#FACC82"/>
<path d="M46 994H704.207H704.266L1178.71 1798L46 994Z" fill="#CCAB75"/>
</g>
<defs>
<filter id="filter0_d_124_105" x="1310.21" y="798" width="1693" height="1060" filterUnits="userSpaceOnUse" color-interpolation-filters="sRGB">
<feFlood flood-opacity="0" result="BackgroundImageFix"/>
<feColorMatrix in="SourceAlpha" type="matrix" values="0 0 0 0 0 0 0 0 0 0 0 0 0 0 0 0 0 0 127 0" result="hardAlpha"/>
<feOffset dy="10"/>
<feGaussianBlur stdDeviation="25"/>
<feComposite in2="hardAlpha" operator="out"/>
<feColorMatrix type="matrix" values="0 0 0 0 0 0 0 0 0 0 0 0 0 0 0 0 0 0 0.25 0"/>
<feBlend mode="normal" in2="BackgroundImageFix" result="effect1_dropShadow_124_105"/>
<feBlend mode="normal" in="SourceGraphic" in2="effect1_dropShadow_124_105" result="shape"/>
</filter>
<clipPath id="clip0_124_105">
<rect width="3000" height="3000" fill="white"/>
</clipPath>
</defs>
</svg>
