<svg width="3100" height="3100" viewBox="0 0 3100 3100" fill="none" xmlns="http://www.w3.org/2000/svg">
<path d="M949 1653L615.904 2210.49C615.506 2211.15 615.986 2212 616.762 2212H2205.89C2206.67 2212 2207.15 2211.15 2206.75 2210.48L1823.5 1573.5" stroke="#FACC82" stroke-width="85"/>
<path d="M1122.5 1365L1028.5 1521" stroke="#FACC82" stroke-width="85"/>
<path d="M1409.49 1847.13L843.891 889.509C843.497 888.842 843.978 888 844.752 888H2999.4C3000.42 888 3000.79 889.334 2999.92 889.857L1410.86 1847.48C1410.39 1847.77 1409.77 1847.61 1409.49 1847.13Z" stroke="#FACC82" stroke-width="85"/>
<path d="M754.207 1044H753.695M753.695 1044H99.1365C98.1622 1044 97.7631 1045.25 98.5576 1045.82L1224.89 1845.29C1225.76 1845.91 1226.87 1844.89 1226.33 1843.96L754.556 1044.49C754.376 1044.19 754.048 1044 753.695 1044Z" stroke="#FACC82" stroke-width="85"/>
</svg>
