<svg width="7714" height="2038" viewBox="0 0 7714 2038" fill="none" xmlns="http://www.w3.org/2000/svg">
<path d="M787.2 1514.2C673.2 1514.2 587.4 1483 529.8 1420.6C472.6 1358.2 444 1264.8 444 1140.4V505H535.2V1120.6C535.2 1222.6 556 1298.8 597.6 1349.2C639.6 1399.2 702.8 1424.2 787.2 1424.2C871.2 1424.2 934 1399.2 975.6 1349.2C1017.6 1298.8 1038.6 1222.6 1038.6 1120.6V505H1130.4V1140.4C1130.4 1264.8 1101.6 1358.2 1044 1420.6C986.8 1483 901.2 1514.2 787.2 1514.2ZM1438.09 1495V505H1529.29L2060.89 1339.6V505H2152.09V1495H2060.89L1529.29 661.6V1495H1438.09ZM2475.2 1495V505H2566.4V1495H2475.2ZM2888.87 1495V505H3389.87V585.4H2944.07L2980.07 558.4V1012.6L2944.07 958.6H3362.27V1039H2944.07L2980.07 985V1495H2888.87ZM4073.95 1514.2C4004.75 1514.2 3939.95 1501 3879.55 1474.6C3819.15 1448.2 3766.15 1411.6 3720.55 1364.8C3674.95 1317.6 3639.15 1263 3613.15 1201C3587.55 1138.6 3574.75 1071.8 3574.75 1000.6C3574.75 929 3587.55 862.2 3613.15 800.2C3639.15 738.2 3674.95 683.8 3720.55 637C3766.15 589.8 3819.15 553 3879.55 526.6C3939.95 500.2 4004.75 487 4073.95 487C4143.15 487 4207.95 500.2 4268.35 526.6C4328.75 553 4381.75 589.8 4427.35 637C4472.95 683.8 4508.55 738.2 4534.15 800.2C4560.15 862.2 4573.15 929 4573.15 1000.6C4573.15 1071.8 4560.15 1138.6 4534.15 1201C4508.55 1263 4472.95 1317.6 4427.35 1364.8C4381.75 1411.6 4328.75 1448.2 4268.35 1474.6C4207.95 1501 4143.15 1514.2 4073.95 1514.2ZM4073.95 1426C4130.35 1426 4182.75 1415.2 4231.15 1393.6C4279.55 1372 4321.95 1341.8 4358.35 1303C4395.15 1264.2 4423.75 1219 4444.15 1167.4C4464.55 1115.8 4474.75 1060.2 4474.75 1000.6C4474.75 941 4464.55 885.4 4444.15 833.8C4423.75 782.2 4395.15 737 4358.35 698.2C4321.95 659.4 4279.55 629.2 4231.15 607.6C4182.75 586 4130.35 575.2 4073.95 575.2C4017.55 575.2 3964.95 586 3916.15 607.6C3867.75 629.2 3825.35 659.4 3788.95 698.2C3752.55 737 3723.95 782.2 3703.15 833.8C3682.75 885.4 3672.55 941 3672.55 1000.6C3672.55 1060.2 3682.75 1115.8 3703.15 1167.4C3723.95 1219 3752.55 1264.2 3788.95 1303C3825.35 1341.8 3867.75 1372 3916.15 1393.6C3964.95 1415.2 4017.55 1426 4073.95 1426ZM4835.35 1495V505H5092.15C5156.95 505 5212.95 516.2 5260.15 538.6C5307.35 561 5343.75 593.2 5369.35 635.2C5395.35 676.8 5408.35 726.6 5408.35 784.6C5408.35 837.8 5397.35 884.8 5375.35 925.6C5353.75 966 5322.95 998.8 5282.95 1024C5243.35 1048.8 5196.15 1064 5141.35 1069.6L5470.75 1495H5354.95L5039.35 1078H4926.55V1495H4835.35ZM4926.55 998.8H5070.55C5120.95 998.8 5164.35 990.2 5200.75 973C5237.15 955.8 5265.15 931.4 5284.75 899.8C5304.75 867.8 5314.75 830.2 5314.75 787C5314.75 722.2 5293.15 671.4 5249.95 634.6C5206.75 597.8 5146.95 579.4 5070.55 579.4H4926.55V998.8ZM6102.22 1514.2C6033.42 1514.2 5969.42 1501 5910.22 1474.6C5851.42 1448.2 5799.82 1411.6 5755.42 1364.8C5711.42 1318 5677.02 1263.6 5652.22 1201.6C5627.42 1139.2 5615.02 1072.2 5615.02 1000.6C5615.02 934.6 5626.02 870.8 5648.02 809.2C5670.02 747.6 5702.22 692.8 5744.62 644.8C5787.02 596.4 5838.82 558 5900.02 529.6C5961.62 501.2 6031.42 487 6109.42 487C6160.62 487 6209.02 493.4 6254.62 506.2C6300.22 519 6342.02 536.8 6380.02 559.6C6418.42 582.4 6451.82 609.2 6480.22 640L6432.82 709.6C6395.22 666.8 6348.02 632.6 6291.22 607C6234.42 581 6173.42 568 6108.22 568C6045.82 568 5990.02 579.6 5940.82 602.8C5892.02 626 5850.62 657.8 5816.62 698.2C5782.62 738.2 5756.82 784 5739.22 835.6C5721.62 886.8 5712.82 940.8 5712.82 997.6C5712.82 1058.8 5722.62 1115.8 5742.22 1168.6C5762.22 1221 5790.02 1267 5825.62 1306.6C5861.22 1345.8 5902.82 1376.4 5950.42 1398.4C5998.02 1420 6049.22 1430.8 6104.02 1430.8C6148.42 1430.8 6192.02 1423.4 6234.82 1408.6C6277.62 1393.8 6316.02 1372.4 6350.02 1344.4C6384.42 1316.4 6411.62 1283 6431.62 1244.2C6452.02 1205 6462.22 1161 6462.22 1112.2V1078H6097.42V1004.2H6555.82V1092.4C6555.82 1162.4 6542.62 1223.8 6516.22 1276.6C6489.82 1329.4 6454.62 1373.4 6410.62 1408.6C6366.62 1443.4 6317.82 1469.8 6264.22 1487.8C6210.62 1505.4 6156.62 1514.2 6102.22 1514.2ZM6809.96 1495V505H7308.56V585.4H6901.16V958.6H7294.16V1039H6901.16V1414.6H7308.56V1495H6809.96Z" fill="#FFD99A"/>
</svg>
