<svg width="10752" height="2038" viewBox="0 0 10752 2038" fill="none" xmlns="http://www.w3.org/2000/svg">
<path d="M1221 1122L887.904 1679.49C887.506 1680.15 887.986 1681 888.762 1681H2477.89C2478.67 1681 2479.15 1680.15 2478.75 1679.48L2095.5 1042.5" stroke="black" stroke-width="85"/>
<path d="M1394.5 834L1300.5 990" stroke="black" stroke-width="85"/>
<path d="M1681.49 1316.13L1115.89 358.509C1115.5 357.842 1115.98 357 1116.75 357H3271.4C3272.42 357 3272.79 358.334 3271.92 358.857L1682.86 1316.48C1682.39 1316.77 1681.77 1316.61 1681.49 1316.13Z" stroke="black" stroke-width="85"/>
<path d="M1026.21 513H1025.69M1025.69 513H371.137C370.162 513 369.763 514.251 370.558 514.815L1496.89 1314.29C1497.76 1314.91 1498.87 1313.89 1498.33 1312.96L1026.56 513.492C1026.38 513.187 1026.05 513 1025.69 513Z" stroke="black" stroke-width="85"/>
<path d="M3754.41 1514.2C3640.41 1514.2 3554.61 1483 3497.01 1420.6C3439.81 1358.2 3411.21 1264.8 3411.21 1140.4V505H3502.41V1120.6C3502.41 1222.6 3523.21 1298.8 3564.81 1349.2C3606.81 1399.2 3670.01 1424.2 3754.41 1424.2C3838.41 1424.2 3901.21 1399.2 3942.81 1349.2C3984.81 1298.8 4005.81 1222.6 4005.81 1120.6V505H4097.61V1140.4C4097.61 1264.8 4068.81 1358.2 4011.21 1420.6C3954.01 1483 3868.41 1514.2 3754.41 1514.2ZM4405.29 1495V505H4496.49L5028.09 1339.6V505H5119.29V1495H5028.09L4496.49 661.6V1495H4405.29ZM5442.4 1495V505H5533.6V1495H5442.4ZM5856.08 1495V505H6357.08V585.4H5911.28L5947.28 558.4V1012.6L5911.28 958.6H6329.48V1039H5911.28L5947.28 985V1495H5856.08ZM7041.16 1514.2C6971.96 1514.2 6907.16 1501 6846.76 1474.6C6786.36 1448.2 6733.36 1411.6 6687.76 1364.8C6642.16 1317.6 6606.36 1263 6580.36 1201C6554.76 1138.6 6541.96 1071.8 6541.96 1000.6C6541.96 929 6554.76 862.2 6580.36 800.2C6606.36 738.2 6642.16 683.8 6687.76 637C6733.36 589.8 6786.36 553 6846.76 526.6C6907.16 500.2 6971.96 487 7041.16 487C7110.36 487 7175.16 500.2 7235.56 526.6C7295.96 553 7348.96 589.8 7394.56 637C7440.16 683.8 7475.76 738.2 7501.36 800.2C7527.36 862.2 7540.36 929 7540.36 1000.6C7540.36 1071.8 7527.36 1138.6 7501.36 1201C7475.76 1263 7440.16 1317.6 7394.56 1364.8C7348.96 1411.6 7295.96 1448.2 7235.56 1474.6C7175.16 1501 7110.36 1514.2 7041.16 1514.2ZM7041.16 1426C7097.56 1426 7149.96 1415.2 7198.36 1393.6C7246.76 1372 7289.16 1341.8 7325.56 1303C7362.36 1264.2 7390.96 1219 7411.36 1167.4C7431.76 1115.8 7441.96 1060.2 7441.96 1000.6C7441.96 941 7431.76 885.4 7411.36 833.8C7390.96 782.2 7362.36 737 7325.56 698.2C7289.16 659.4 7246.76 629.2 7198.36 607.6C7149.96 586 7097.56 575.2 7041.16 575.2C6984.76 575.2 6932.16 586 6883.36 607.6C6834.96 629.2 6792.56 659.4 6756.16 698.2C6719.76 737 6691.16 782.2 6670.36 833.8C6649.96 885.4 6639.76 941 6639.76 1000.6C6639.76 1060.2 6649.96 1115.8 6670.36 1167.4C6691.16 1219 6719.76 1264.2 6756.16 1303C6792.56 1341.8 6834.96 1372 6883.36 1393.6C6932.16 1415.2 6984.76 1426 7041.16 1426ZM7802.56 1495V505H8059.36C8124.16 505 8180.16 516.2 8227.36 538.6C8274.56 561 8310.96 593.2 8336.56 635.2C8362.56 676.8 8375.56 726.6 8375.56 784.6C8375.56 837.8 8364.56 884.8 8342.56 925.6C8320.96 966 8290.16 998.8 8250.16 1024C8210.56 1048.8 8163.36 1064 8108.56 1069.6L8437.96 1495H8322.16L8006.56 1078H7893.76V1495H7802.56ZM7893.76 998.8H8037.76C8088.16 998.8 8131.56 990.2 8167.96 973C8204.36 955.8 8232.36 931.4 8251.96 899.8C8271.96 867.8 8281.96 830.2 8281.96 787C8281.96 722.2 8260.36 671.4 8217.16 634.6C8173.96 597.8 8114.16 579.4 8037.76 579.4H7893.76V998.8ZM9069.42 1514.2C9000.62 1514.2 8936.62 1501 8877.42 1474.6C8818.62 1448.2 8767.02 1411.6 8722.62 1364.8C8678.62 1318 8644.22 1263.6 8619.42 1201.6C8594.62 1139.2 8582.22 1072.2 8582.22 1000.6C8582.22 934.6 8593.22 870.8 8615.22 809.2C8637.22 747.6 8669.42 692.8 8711.82 644.8C8754.22 596.4 8806.02 558 8867.22 529.6C8928.82 501.2 8998.62 487 9076.62 487C9127.82 487 9176.22 493.4 9221.82 506.2C9267.42 519 9309.22 536.8 9347.22 559.6C9385.62 582.4 9419.02 609.2 9447.42 640L9400.02 709.6C9362.42 666.8 9315.22 632.6 9258.42 607C9201.62 581 9140.62 568 9075.42 568C9013.02 568 8957.22 579.6 8908.02 602.8C8859.22 626 8817.82 657.8 8783.82 698.2C8749.82 738.2 8724.02 784 8706.42 835.6C8688.82 886.8 8680.02 940.8 8680.02 997.6C8680.02 1058.8 8689.82 1115.8 8709.42 1168.6C8729.42 1221 8757.22 1267 8792.82 1306.6C8828.42 1345.8 8870.02 1376.4 8917.62 1398.4C8965.22 1420 9016.42 1430.8 9071.22 1430.8C9115.62 1430.8 9159.22 1423.4 9202.02 1408.6C9244.82 1393.8 9283.22 1372.4 9317.22 1344.4C9351.62 1316.4 9378.82 1283 9398.82 1244.2C9419.22 1205 9429.42 1161 9429.42 1112.2V1078H9064.62V1004.2H9523.02V1092.4C9523.02 1162.4 9509.82 1223.8 9483.42 1276.6C9457.02 1329.4 9421.82 1373.4 9377.82 1408.6C9333.82 1443.4 9285.02 1469.8 9231.42 1487.8C9177.82 1505.4 9123.82 1514.2 9069.42 1514.2ZM9777.17 1495V505H10275.8V585.4H9868.37V958.6H10261.4V1039H9868.37V1414.6H10275.8V1495H9777.17Z" fill="black"/>
</svg>
