<svg width="7714" height="2038" viewBox="0 0 7714 2038" fill="none" xmlns="http://www.w3.org/2000/svg">
<path d="M787.2 1530.2C673.2 1530.2 587.4 1499 529.8 1436.6C472.6 1374.2 444 1280.8 444 1156.4V521H535.2V1136.6C535.2 1238.6 556 1314.8 597.6 1365.2C639.6 1415.2 702.8 1440.2 787.2 1440.2C871.2 1440.2 934 1415.2 975.6 1365.2C1017.6 1314.8 1038.6 1238.6 1038.6 1136.6V521H1130.4V1156.4C1130.4 1280.8 1101.6 1374.2 1044 1436.6C986.8 1499 901.2 1530.2 787.2 1530.2ZM1438.09 1511V521H1529.29L2060.89 1355.6V521H2152.09V1511H2060.89L1529.29 677.6V1511H1438.09ZM2475.2 1511V521H2566.4V1511H2475.2ZM2888.87 1511V521H3389.87V601.4H2944.07L2980.07 574.4V1028.6L2944.07 974.6H3362.27V1055H2944.07L2980.07 1001V1511H2888.87ZM4073.95 1530.2C4004.75 1530.2 3939.95 1517 3879.55 1490.6C3819.15 1464.2 3766.15 1427.6 3720.55 1380.8C3674.95 1333.6 3639.15 1279 3613.15 1217C3587.55 1154.6 3574.75 1087.8 3574.75 1016.6C3574.75 945 3587.55 878.2 3613.15 816.2C3639.15 754.2 3674.95 699.8 3720.55 653C3766.15 605.8 3819.15 569 3879.55 542.6C3939.95 516.2 4004.75 503 4073.95 503C4143.15 503 4207.95 516.2 4268.35 542.6C4328.75 569 4381.75 605.8 4427.35 653C4472.95 699.8 4508.55 754.2 4534.15 816.2C4560.15 878.2 4573.15 945 4573.15 1016.6C4573.15 1087.8 4560.15 1154.6 4534.15 1217C4508.55 1279 4472.95 1333.6 4427.35 1380.8C4381.75 1427.6 4328.75 1464.2 4268.35 1490.6C4207.95 1517 4143.15 1530.2 4073.95 1530.2ZM4073.95 1442C4130.35 1442 4182.75 1431.2 4231.15 1409.6C4279.55 1388 4321.95 1357.8 4358.35 1319C4395.15 1280.2 4423.75 1235 4444.15 1183.4C4464.55 1131.8 4474.75 1076.2 4474.75 1016.6C4474.75 957 4464.55 901.4 4444.15 849.8C4423.75 798.2 4395.15 753 4358.35 714.2C4321.95 675.4 4279.55 645.2 4231.15 623.6C4182.75 602 4130.35 591.2 4073.95 591.2C4017.55 591.2 3964.95 602 3916.15 623.6C3867.75 645.2 3825.35 675.4 3788.95 714.2C3752.55 753 3723.95 798.2 3703.15 849.8C3682.75 901.4 3672.55 957 3672.55 1016.6C3672.55 1076.2 3682.75 1131.8 3703.15 1183.4C3723.95 1235 3752.55 1280.2 3788.95 1319C3825.35 1357.8 3867.75 1388 3916.15 1409.6C3964.95 1431.2 4017.55 1442 4073.95 1442ZM4835.35 1511V521H5092.15C5156.95 521 5212.95 532.2 5260.15 554.6C5307.35 577 5343.75 609.2 5369.35 651.2C5395.35 692.8 5408.35 742.6 5408.35 800.6C5408.35 853.8 5397.35 900.8 5375.35 941.6C5353.75 982 5322.95 1014.8 5282.95 1040C5243.35 1064.8 5196.15 1080 5141.35 1085.6L5470.75 1511H5354.95L5039.35 1094H4926.55V1511H4835.35ZM4926.55 1014.8H5070.55C5120.95 1014.8 5164.35 1006.2 5200.75 989C5237.15 971.8 5265.15 947.4 5284.75 915.8C5304.75 883.8 5314.75 846.2 5314.75 803C5314.75 738.2 5293.15 687.4 5249.95 650.6C5206.75 613.8 5146.95 595.4 5070.55 595.4H4926.55V1014.8ZM6102.22 1530.2C6033.42 1530.2 5969.42 1517 5910.22 1490.6C5851.42 1464.2 5799.82 1427.6 5755.42 1380.8C5711.42 1334 5677.02 1279.6 5652.22 1217.6C5627.42 1155.2 5615.02 1088.2 5615.02 1016.6C5615.02 950.6 5626.02 886.8 5648.02 825.2C5670.02 763.6 5702.22 708.8 5744.62 660.8C5787.02 612.4 5838.82 574 5900.02 545.6C5961.62 517.2 6031.42 503 6109.42 503C6160.62 503 6209.02 509.4 6254.62 522.2C6300.22 535 6342.02 552.8 6380.02 575.6C6418.42 598.4 6451.82 625.2 6480.22 656L6432.82 725.6C6395.22 682.8 6348.02 648.6 6291.22 623C6234.42 597 6173.42 584 6108.22 584C6045.82 584 5990.02 595.6 5940.82 618.8C5892.02 642 5850.62 673.8 5816.62 714.2C5782.62 754.2 5756.82 800 5739.22 851.6C5721.62 902.8 5712.82 956.8 5712.82 1013.6C5712.82 1074.8 5722.62 1131.8 5742.22 1184.6C5762.22 1237 5790.02 1283 5825.62 1322.6C5861.22 1361.8 5902.82 1392.4 5950.42 1414.4C5998.02 1436 6049.22 1446.8 6104.02 1446.8C6148.42 1446.8 6192.02 1439.4 6234.82 1424.6C6277.62 1409.8 6316.02 1388.4 6350.02 1360.4C6384.42 1332.4 6411.62 1299 6431.62 1260.2C6452.02 1221 6462.22 1177 6462.22 1128.2V1094H6097.42V1020.2H6555.82V1108.4C6555.82 1178.4 6542.62 1239.8 6516.22 1292.6C6489.82 1345.4 6454.62 1389.4 6410.62 1424.6C6366.62 1459.4 6317.82 1485.8 6264.22 1503.8C6210.62 1521.4 6156.62 1530.2 6102.22 1530.2ZM6809.96 1511V521H7308.56V601.4H6901.16V974.6H7294.16V1055H6901.16V1430.6H7308.56V1511H6809.96Z" fill="#ECECEC"/>
</svg>
