<svg width="10752" height="2038" viewBox="0 0 10752 2038" fill="none" xmlns="http://www.w3.org/2000/svg">
<path d="M1682.21 1681H2480.71L1682.21 1317V1681Z" fill="#141414"/>
<path d="M1682.21 1681H884.207L1682.21 1317V1681Z" fill="#383838"/>
<path d="M1682.21 1317L2480.71 1681L1682.21 357V1317Z" fill="#383838"/>
<path d="M1682.21 357V1317L884.207 1681L1682.21 357Z" fill="#8C8C8C"/>
<g filter="url(#filter0_d_117_603)">
<path d="M1682.21 1317L3275.21 357H2119.21L1682.21 1317Z" fill="#383838"/>
</g>
<path d="M2119.21 357H1115.21L1682.21 1317L2119.21 357Z" fill="#141414"/>
<path d="M368 513H1026.21H1026.27L1500.71 1317L368 513Z" fill="#383838"/>
<path d="M3754.2 1514.2C3640.2 1514.2 3554.4 1483 3496.8 1420.6C3439.6 1358.2 3411 1264.8 3411 1140.4V505H3502.2V1120.6C3502.2 1222.6 3523 1298.8 3564.6 1349.2C3606.6 1399.2 3669.8 1424.2 3754.2 1424.2C3838.2 1424.2 3901 1399.2 3942.6 1349.2C3984.6 1298.8 4005.6 1222.6 4005.6 1120.6V505H4097.4V1140.4C4097.4 1264.8 4068.6 1358.2 4011 1420.6C3953.8 1483 3868.2 1514.2 3754.2 1514.2ZM4405.09 1495V505H4496.29L5027.89 1339.6V505H5119.09V1495H5027.89L4496.29 661.6V1495H4405.09ZM5442.2 1495V505H5533.4V1495H5442.2ZM5855.87 1495V505H6356.87V585.4H5911.07L5947.07 558.4V1012.6L5911.07 958.6H6329.27V1039H5911.07L5947.07 985V1495H5855.87ZM7040.95 1514.2C6971.75 1514.2 6906.95 1501 6846.55 1474.6C6786.15 1448.2 6733.15 1411.6 6687.55 1364.8C6641.95 1317.6 6606.15 1263 6580.15 1201C6554.55 1138.6 6541.75 1071.8 6541.75 1000.6C6541.75 929 6554.55 862.2 6580.15 800.2C6606.15 738.2 6641.95 683.8 6687.55 637C6733.15 589.8 6786.15 553 6846.55 526.6C6906.95 500.2 6971.75 487 7040.95 487C7110.15 487 7174.95 500.2 7235.35 526.6C7295.75 553 7348.75 589.8 7394.35 637C7439.95 683.8 7475.55 738.2 7501.15 800.2C7527.15 862.2 7540.15 929 7540.15 1000.6C7540.15 1071.8 7527.15 1138.6 7501.15 1201C7475.55 1263 7439.95 1317.6 7394.35 1364.8C7348.75 1411.6 7295.75 1448.2 7235.35 1474.6C7174.95 1501 7110.15 1514.2 7040.95 1514.2ZM7040.95 1426C7097.35 1426 7149.75 1415.2 7198.15 1393.6C7246.55 1372 7288.95 1341.8 7325.35 1303C7362.15 1264.2 7390.75 1219 7411.15 1167.4C7431.55 1115.8 7441.75 1060.2 7441.75 1000.6C7441.75 941 7431.55 885.4 7411.15 833.8C7390.75 782.2 7362.15 737 7325.35 698.2C7288.95 659.4 7246.55 629.2 7198.15 607.6C7149.75 586 7097.35 575.2 7040.95 575.2C6984.55 575.2 6931.95 586 6883.15 607.6C6834.75 629.2 6792.35 659.4 6755.95 698.2C6719.55 737 6690.95 782.2 6670.15 833.8C6649.75 885.4 6639.55 941 6639.55 1000.6C6639.55 1060.2 6649.75 1115.8 6670.15 1167.4C6690.95 1219 6719.55 1264.2 6755.95 1303C6792.35 1341.8 6834.75 1372 6883.15 1393.6C6931.95 1415.2 6984.55 1426 7040.95 1426ZM7802.35 1495V505H8059.15C8123.95 505 8179.95 516.2 8227.15 538.6C8274.35 561 8310.75 593.2 8336.35 635.2C8362.35 676.8 8375.35 726.6 8375.35 784.6C8375.35 837.8 8364.35 884.8 8342.35 925.6C8320.75 966 8289.95 998.8 8249.95 1024C8210.35 1048.8 8163.15 1064 8108.35 1069.6L8437.75 1495H8321.95L8006.35 1078H7893.55V1495H7802.35ZM7893.55 998.8H8037.55C8087.95 998.8 8131.35 990.2 8167.75 973C8204.15 955.8 8232.15 931.4 8251.75 899.8C8271.75 867.8 8281.75 830.2 8281.75 787C8281.75 722.2 8260.15 671.4 8216.95 634.6C8173.75 597.8 8113.95 579.4 8037.55 579.4H7893.55V998.8ZM9069.22 1514.2C9000.42 1514.2 8936.42 1501 8877.22 1474.6C8818.42 1448.2 8766.82 1411.6 8722.42 1364.8C8678.42 1318 8644.02 1263.6 8619.22 1201.6C8594.42 1139.2 8582.02 1072.2 8582.02 1000.6C8582.02 934.6 8593.02 870.8 8615.02 809.2C8637.02 747.6 8669.22 692.8 8711.62 644.8C8754.02 596.4 8805.82 558 8867.02 529.6C8928.62 501.2 8998.42 487 9076.42 487C9127.62 487 9176.02 493.4 9221.62 506.2C9267.22 519 9309.02 536.8 9347.02 559.6C9385.42 582.4 9418.82 609.2 9447.22 640L9399.82 709.6C9362.22 666.8 9315.02 632.6 9258.22 607C9201.42 581 9140.42 568 9075.22 568C9012.82 568 8957.02 579.6 8907.82 602.8C8859.02 626 8817.62 657.8 8783.62 698.2C8749.62 738.2 8723.82 784 8706.22 835.6C8688.62 886.8 8679.82 940.8 8679.82 997.6C8679.82 1058.8 8689.62 1115.8 8709.22 1168.6C8729.22 1221 8757.02 1267 8792.62 1306.6C8828.22 1345.8 8869.82 1376.4 8917.42 1398.4C8965.02 1420 9016.22 1430.8 9071.02 1430.8C9115.42 1430.8 9159.02 1423.4 9201.82 1408.6C9244.62 1393.8 9283.02 1372.4 9317.02 1344.4C9351.42 1316.4 9378.62 1283 9398.62 1244.2C9419.02 1205 9429.22 1161 9429.22 1112.2V1078H9064.42V1004.2H9522.82V1092.4C9522.82 1162.4 9509.62 1223.8 9483.22 1276.6C9456.82 1329.4 9421.62 1373.4 9377.62 1408.6C9333.62 1443.4 9284.82 1469.8 9231.22 1487.8C9177.62 1505.4 9123.62 1514.2 9069.22 1514.2ZM9776.96 1495V505H10275.6V585.4H9868.16V958.6H10261.2V1039H9868.16V1414.6H10275.6V1495H9776.96Z" fill="#3B3B3B"/>
<defs>
<filter id="filter0_d_117_603" x="1632.21" y="317" width="1693" height="1060" filterUnits="userSpaceOnUse" color-interpolation-filters="sRGB">
<feFlood flood-opacity="0" result="BackgroundImageFix"/>
<feColorMatrix in="SourceAlpha" type="matrix" values="0 0 0 0 0 0 0 0 0 0 0 0 0 0 0 0 0 0 127 0" result="hardAlpha"/>
<feOffset dy="10"/>
<feGaussianBlur stdDeviation="25"/>
<feComposite in2="hardAlpha" operator="out"/>
<feColorMatrix type="matrix" values="0 0 0 0 0 0 0 0 0 0 0 0 0 0 0 0 0 0 0.25 0"/>
<feBlend mode="normal" in2="BackgroundImageFix" result="effect1_dropShadow_117_603"/>
<feBlend mode="normal" in="SourceGraphic" in2="effect1_dropShadow_117_603" result="shape"/>
</filter>
</defs>
</svg>
